<svg width="32" height="32" viewBox="0 0 32 32" fill="none" xmlns="http://www.w3.org/2000/svg">
<rect width="32" height="32" rx="5" fill="url(#paint0_linear)"/>
<g clip-path="url(#clip0)">
<path d="M19.0732 7H12.4878C9.45744 7 7 9.45744 7 12.4878V19.0732C7 22.1035 9.45744 24.561 12.4878 24.561H19.0732C22.1035 24.561 24.561 22.1035 24.561 19.0732V12.4878C24.561 9.45744 22.1035 7 19.0732 7ZM22.9146 19.0732C22.9146 21.1915 21.1915 22.9146 19.0732 22.9146H12.4878C10.3695 22.9146 8.64634 21.1915 8.64634 19.0732V12.4878C8.64634 10.3695 10.3695 8.64634 12.4878 8.64634H19.0732C21.1915 8.64634 22.9146 10.3695 22.9146 12.4878V19.0732Z" fill="white"/>
<path d="M15.7809 11.3904C13.3564 11.3904 11.3906 13.3561 11.3906 15.7806C11.3906 18.2051 13.3564 20.1709 15.7809 20.1709C18.2054 20.1709 20.1711 18.2051 20.1711 15.7806C20.1711 13.3561 18.2054 11.3904 15.7809 11.3904ZM15.7809 18.5245C14.2684 18.5245 13.037 17.2931 13.037 15.7806C13.037 14.2671 14.2684 13.0367 15.7809 13.0367C17.2933 13.0367 18.5248 14.2671 18.5248 15.7806C18.5248 17.2931 17.2933 18.5245 15.7809 18.5245Z" fill="white"/>
<path d="M20.4991 11.6458C20.8222 11.6458 21.0841 11.3839 21.0841 11.0608C21.0841 10.7377 20.8222 10.4758 20.4991 10.4758C20.176 10.4758 19.9141 10.7377 19.9141 11.0608C19.9141 11.3839 20.176 11.6458 20.4991 11.6458Z" fill="white"/>
</g>
<defs>
<linearGradient id="paint0_linear" x1="32" y1="-2.5" x2="1.02818e-06" y2="32" gradientUnits="userSpaceOnUse">
<stop stop-color="#B92BAA"/>
<stop offset="0.602113" stop-color="#FF5F5F"/>
<stop offset="1" stop-color="#FCC163"/>
</linearGradient>
<clipPath id="clip0">
<rect x="7" y="7" width="17.561" height="17.561" fill="white"/>
</clipPath>
</defs>
</svg>
